<svg xmlns="http://www.w3.org/2000/svg" viewBox="0 0 64 64" role="img" aria-labelledby="favTitle">
  <title id="favTitle">LIOPAY</title>
  <defs>
    <linearGradient id="favMane" x1="0%" y1="0%" x2="100%" y2="100%">
      <stop offset="0%" stop-color="#ff7a18"/>
      <stop offset="35%" stop-color="#ff2d55"/>
      <stop offset="70%" stop-color="#7c3aed"/>
      <stop offset="100%" stop-color="#06b6d4"/>
    </linearGradient>
    <linearGradient id="favFace" x1="0%" y1="0%" x2="100%" y2="100%">
      <stop offset="0%" stop-color="#fff4db"/>
      <stop offset="100%" stop-color="#f7bb74"/>
    </linearGradient>
  </defs>
  <rect width="64" height="64" rx="16" fill="#0f1022"/>
  <circle cx="32" cy="32" r="22" fill="url(#favMane)"/>
  <circle cx="32" cy="32" r="15" fill="url(#favFace)"/>
  <path d="M21 28c3-8 14-11 22-4 2 2 3 4 4 7-5-2-10-4-16-4-3 0-7 0-10 1z" fill="#6b3416"/>
  <path d="M24 42c5 6 15 7 22 1-2-7-7-12-14-13-5-1-10 3-12 8 0 1 2 3 4 4z" fill="#fff4e0"/>
  <path d="M28 37c3 2 8 2 11 0-1 4-4 6-6 6-3 0-5-2-5-6z" fill="#2b1710"/>
  <path d="M31 34l2 3 2-3z" fill="#ef4444"/>
  <circle cx="28" cy="30" r="2" fill="#20120d"/>
  <circle cx="37" cy="30" r="2" fill="#20120d"/>
</svg>
